<svg viewBox="0 0 122.88 79.12">
  <g>
    <path class="arrows" d="M58.63,63.26l3.52-17.9l3.57,5.39c7.69-3.09,12.01-8.18,12.65-16.01c6.32,11.04,2.49,20.95-5.53,26.74l3.64,5.48 L58.63,63.26L58.63,63.26L58.63,63.26L58.63,63.26L58.63,63.26L58.63,63.26L58.63,63.26z M64.07,24.26l-3.52,17.9 l-3.57-5.39c-7.69,3.09-12.01,8.18-12.65,16.01c-6.32-11.04-2.49-20.95,5.53-26.74l-3.64-5.48L64.07,24.26L64.07,24.26L64.07,24.26 L64.07,24.26L64.07,24.26L64.07,24.26L64.07,24.26z"/>
    <path d="M71.71,10.39 c-5.2-2.49-11.02-3.45-16.69-2.9c-5.63,0.54-11.1,2.59-15.62,6.1c-5.23,4.05-9.2,10.11-10.73,18.14l-0.48,2.51l-2.5,0.44 c-2.45,0.43-4.64,1.02-6.56,1.77c-1.86,0.72-3.52,1.61-4.97,2.66c-1.16,0.84-2.16,1.78-3.01,2.8c-2.63,3.15-3.85,7.1-3.82,11.1 c0.03,4.06,1.35,8.16,3.79,11.53c0.91,1.25,1.96,2.4,3.16,3.4c1.22,1.01,2.59,1.85,4.13,2.48c1.53,0.63,3.22,1.08,5.09,1.34h72.55 c3.53-0.85,6.65-2,9.3-3.48c2.63-1.47,4.78-3.26,6.39-5.41c2.5-3.33,3.73-8.04,3.78-12.87c0.06-5.07-1.18-10.16-3.59-13.86 c-0.69-1.07-1.45-2.03-2.25-2.89c-3.61-3.89-8.19-5.59-12.95-5.62c-2.49-0.02-5.06,0.41-7.57,1.22 C83.97,21.62,80.22,14.48,71.71,10.39L71.71,10.39z M91.99,20.65c1.6-0.25,3.2-0.38,4.79-0.36c6.72,0.05,13.2,2.45,18.3,7.95 c1.07,1.15,2.08,2.45,3.03,3.9c3.2,4.92,4.84,11.49,4.77,17.92c-0.07,6.31-1.77,12.59-5.25,17.21c-2.27,3.01-5.18,5.47-8.67,7.42 c-3.36,1.88-7.28,3.31-11.68,4.33l-0.82,0.1H23.38l-0.46-0.04c-2.67-0.34-5.09-0.97-7.29-1.88c-2.27-0.94-4.28-2.15-6.05-3.63 c-1.68-1.4-3.15-2.99-4.4-4.72C1.84,64.25,0.04,58.63,0,53.03c-0.04-5.66,1.72-11.29,5.52-15.85c1.23-1.48,2.68-2.84,4.34-4.04 c1.93-1.4,4.14-2.58,6.64-3.55c1.72-0.67,3.56-1.23,5.5-1.68c2.2-8.74,6.89-15.47,12.92-20.14c5.64-4.37,12.43-6.92,19.42-7.59 c6.96-0.67,14.12,0.51,20.55,3.6C81.9,7.15,88.02,12.76,91.99,20.65L91.99,20.65L91.99,20.65L91.99,20.65z"/>
  </g>
</svg>

